# xmcd CD database file
#
# Track frame offsets:
#	183
#	15468
#	34430
#	61280
#	80205
#	97598
#	120745
#	137530
#	153223
#
# Disc length: 2482 seconds
#
# Revision: 2
# Processed by: cddbd v1.5.2PL0 Copyright (c) Steve Scherf et al.
# Submitted via: jetAudio 5
#
DISCID=6809b009
DTITLE=어떤날 - 1960 1965
DYEAR=1900
DGENRE=
TTITLE0=하늘
TTITLE1=오래된 친구
TTITLE2=그날
TTITLE3=지금 그대는
TTITLE4=오늘은
TTITLE5=너무 아쉬워 하지마
TTITLE6=겨울하루
TTITLE7=비오는 날이면
TTITLE8=오후만 있던 일요일
EXTD=
EXTT0=
EXTT1=
EXTT2=
EXTT3=
EXTT4=
EXTT5=
EXTT6=
EXTT7=
EXTT8=
PLAYORDER=
